<svg width="276" height="57" viewBox="0 0 276 57" fill="none" xmlns="http://www.w3.org/2000/svg">
<path d="M-9.41753e-06 -9.53674e-07H12.48V21.12H36.72V-9.53674e-07H49.2V56.64H36.72V32.16H12.48V56.64H-9.41753e-06V-9.53674e-07ZM79.3431 -9.53674e-07H89.6631L114.303 56.64H100.223L95.3431 44.64H73.3431L68.6231 56.64H54.8631L79.3431 -9.53674e-07ZM84.1431 16.48L77.2631 34.08H91.1031L84.1431 16.48ZM109.478 -9.53674e-07H123.718L137.718 37.12H137.878L152.118 -9.53674e-07H165.478L142.118 56.64H132.118L109.478 -9.53674e-07ZM171.886 -9.53674e-07H210.366V11.52H184.366V22.08H208.926V33.6H184.366V45.12H211.806V56.64H171.886V-9.53674e-07ZM221.797 -9.53674e-07H238.757L262.837 39.36H262.997V-9.53674e-07H275.477V56.64H259.157L234.437 16.32H234.277V56.64H221.797V-9.53674e-07Z" fill="#206E6B"/>
</svg>
