<svg width="288" height="109" viewBox="0 0 288 109" fill="none" xmlns="http://www.w3.org/2000/svg">
<path d="M5.76 23.3599H18.24V44.4799H42.48V23.3599H54.96V79.9999H42.48V55.5199H18.24V79.9999H5.76V23.3599ZM85.1031 23.3599H95.4231L120.063 79.9999H105.983L101.103 67.9999H79.1031L74.3831 79.9999H60.6231L85.1031 23.3599ZM89.9031 39.8399L83.0231 57.4399H96.8631L89.9031 39.8399ZM115.238 23.3599H129.478L143.478 60.4799H143.638L157.878 23.3599H171.238L147.878 79.9999H137.878L115.238 23.3599ZM177.646 23.3599H216.126V34.8799H190.126V45.4399H214.686V56.9599H190.126V68.4799H217.566V79.9999H177.646V23.3599ZM227.557 23.3599H244.517L268.597 62.7199H268.757V23.3599H281.237V79.9999H264.917L240.197 39.6799H240.037V79.9999H227.557V23.3599Z" fill="white"/>
</svg>
