<svg width="288" height="109" viewBox="0 0 288 109" fill="none" xmlns="http://www.w3.org/2000/svg">
<path d="M5.76 23.3599H18.24V44.4799H42.48V23.3599H54.96V79.9999H42.48V55.5199H18.24V79.9999H5.76V23.3599ZM85.1031 23.3599H95.4231L120.063 79.9999H105.983L101.103 67.9999H79.1031L74.3831 79.9999H60.6231L85.1031 23.3599ZM89.9031 39.8399L83.0231 57.4399H96.8631L89.9031 39.8399ZM115.238 23.3599H129.478L143.478 60.4799H143.638L157.878 23.3599H171.238L147.878 79.9999H137.878L115.238 23.3599ZM177.646 23.3599H216.126V34.8799H190.126V45.4399H214.686V56.9599H190.126V68.4799H217.566V79.9999H177.646V23.3599ZM227.557 23.3599H244.517L268.597 62.7199H268.757V23.3599H281.237V79.9999H264.917L240.197 39.6799H240.037V79.9999H227.557V23.3599Z" fill="white"/>
<path d="M51.821 105V94.0908H58.4048V95.2627H53.142V98.9488H58.0639V100.121H53.142V103.828H58.4901V105H51.821ZM61.8725 100.078V105H60.6154V96.8181H61.8299V98.0965H61.9364C62.1282 97.681 62.4194 97.3472 62.81 97.0951C63.2006 96.8394 63.7049 96.7116 64.3228 96.7116C64.8768 96.7116 65.3615 96.8252 65.777 97.0525C66.1925 97.2762 66.5156 97.6171 66.7464 98.0752C66.9773 98.5297 67.0927 99.105 67.0927 99.801V105H65.8356V99.8863C65.8356 99.2435 65.6687 98.7428 65.3349 98.3841C65.0011 98.0219 64.543 97.8408 63.9606 97.8408C63.5593 97.8408 63.2006 97.9278 62.8846 98.1018C62.5721 98.2758 62.3253 98.5297 62.1442 98.8635C61.9631 99.1974 61.8725 99.6022 61.8725 100.078ZM69.3898 96.8181H70.6469V105.596C70.6469 106.101 70.5599 106.538 70.3859 106.907C70.2155 107.276 69.9562 107.562 69.6082 107.764C69.2638 107.967 68.8287 108.068 68.3032 108.068C68.2606 108.068 68.218 108.068 68.1753 108.068C68.1327 108.068 68.0901 108.068 68.0475 108.068V106.896C68.0901 106.896 68.1292 106.896 68.1647 106.896C68.2002 106.896 68.2393 106.896 68.2819 106.896C68.6654 106.896 68.9459 106.783 69.1235 106.555C69.301 106.332 69.3898 106.012 69.3898 105.596V96.8181ZM70.0077 95.4545C69.7627 95.4545 69.5514 95.371 69.3738 95.2041C69.1998 95.0372 69.1128 94.8366 69.1128 94.6022C69.1128 94.3678 69.1998 94.1672 69.3738 94.0003C69.5514 93.8334 69.7627 93.7499 70.0077 93.7499C70.2528 93.7499 70.4623 93.8334 70.6363 94.0003C70.8138 94.1672 70.9026 94.3678 70.9026 94.6022C70.9026 94.8366 70.8138 95.0372 70.6363 95.2041C70.4623 95.371 70.2528 95.4545 70.0077 95.4545ZM76.2733 105.17C75.5346 105.17 74.8865 104.995 74.329 104.643C73.775 104.291 73.3418 103.8 73.0293 103.168C72.7203 102.535 72.5659 101.797 72.5659 100.952C72.5659 100.099 72.7203 99.3554 73.0293 98.7197C73.3418 98.0841 73.775 97.5905 74.329 97.2389C74.8865 96.8873 75.5346 96.7116 76.2733 96.7116C77.0119 96.7116 77.6582 96.8873 78.2122 97.2389C78.7697 97.5905 79.2029 98.0841 79.5119 98.7197C79.8244 99.3554 79.9806 100.099 79.9806 100.952C79.9806 101.797 79.8244 102.535 79.5119 103.168C79.2029 103.8 78.7697 104.291 78.2122 104.643C77.6582 104.995 77.0119 105.17 76.2733 105.17ZM76.2733 104.041C76.8343 104.041 77.296 103.897 77.6582 103.61C78.0204 103.322 78.2885 102.944 78.4625 102.475C78.6365 102.006 78.7235 101.498 78.7235 100.952C78.7235 100.405 78.6365 99.8951 78.4625 99.4228C78.2885 98.9505 78.0204 98.5688 77.6582 98.2776C77.296 97.9864 76.8343 97.8408 76.2733 97.8408C75.7122 97.8408 75.2505 97.9864 74.8883 98.2776C74.5261 98.5688 74.258 98.9505 74.084 99.4228C73.91 99.8951 73.823 100.405 73.823 100.952C73.823 101.498 73.91 102.006 74.084 102.475C74.258 102.944 74.5261 103.322 74.8883 103.61C75.2505 103.897 75.7122 104.041 76.2733 104.041ZM82.4163 108.068C82.2032 108.068 82.0132 108.05 81.8463 108.015C81.6794 107.983 81.564 107.951 81.5001 107.919L81.8197 106.811C82.1251 106.889 82.395 106.918 82.6294 106.896C82.8637 106.875 83.0715 106.77 83.2526 106.582C83.4372 106.397 83.6059 106.097 83.7586 105.682L83.993 105.043L80.9674 96.8181H82.3311L84.5896 103.338H84.6748L86.9333 96.8181H88.297L84.824 106.193C84.6677 106.616 84.4742 106.965 84.2433 107.242C84.0125 107.523 83.7444 107.731 83.439 107.866C83.1372 108.001 82.7963 108.068 82.4163 108.068ZM94.3454 105V94.0908H100.887V95.2627H95.6665V98.9488H100.397V100.121H95.6665V105H94.3454ZM105.702 105.17C104.963 105.17 104.315 104.995 103.758 104.643C103.204 104.291 102.771 103.8 102.458 103.168C102.149 102.535 101.995 101.797 101.995 100.952C101.995 100.099 102.149 99.3554 102.458 98.7197C102.771 98.0841 103.204 97.5905 103.758 97.2389C104.315 96.8873 104.963 96.7116 105.702 96.7116C106.441 96.7116 107.087 96.8873 107.641 97.2389C108.198 97.5905 108.632 98.0841 108.941 98.7197C109.253 99.3554 109.409 100.099 109.409 100.952C109.409 101.797 109.253 102.535 108.941 103.168C108.632 103.8 108.198 104.291 107.641 104.643C107.087 104.995 106.441 105.17 105.702 105.17ZM105.702 104.041C106.263 104.041 106.725 103.897 107.087 103.61C107.449 103.322 107.717 102.944 107.891 102.475C108.065 102.006 108.152 101.498 108.152 100.952C108.152 100.405 108.065 99.8951 107.891 99.4228C107.717 98.9505 107.449 98.5688 107.087 98.2776C106.725 97.9864 106.263 97.8408 105.702 97.8408C105.141 97.8408 104.679 97.9864 104.317 98.2776C103.955 98.5688 103.687 98.9505 103.513 99.4228C103.339 99.8951 103.252 100.405 103.252 100.952C103.252 101.498 103.339 102.006 103.513 102.475C103.687 102.944 103.955 103.322 104.317 103.61C104.679 103.897 105.141 104.041 105.702 104.041ZM114.652 105.17C113.914 105.17 113.265 104.995 112.708 104.643C112.154 104.291 111.721 103.8 111.408 103.168C111.099 102.535 110.945 101.797 110.945 100.952C110.945 100.099 111.099 99.3554 111.408 98.7197C111.721 98.0841 112.154 97.5905 112.708 97.2389C113.265 96.8873 113.914 96.7116 114.652 96.7116C115.391 96.7116 116.037 96.8873 116.591 97.2389C117.149 97.5905 117.582 98.0841 117.891 98.7197C118.203 99.3554 118.36 100.099 118.36 100.952C118.36 101.797 118.203 102.535 117.891 103.168C117.582 103.8 117.149 104.291 116.591 104.643C116.037 104.995 115.391 105.17 114.652 105.17ZM114.652 104.041C115.213 104.041 115.675 103.897 116.037 103.61C116.399 103.322 116.667 102.944 116.841 102.475C117.015 102.006 117.102 101.498 117.102 100.952C117.102 100.405 117.015 99.8951 116.841 99.4228C116.667 98.9505 116.399 98.5688 116.037 98.2776C115.675 97.9864 115.213 97.8408 114.652 97.8408C114.091 97.8408 113.629 97.9864 113.267 98.2776C112.905 98.5688 112.637 98.9505 112.463 99.4228C112.289 99.8951 112.202 100.405 112.202 100.952C112.202 101.498 112.289 102.006 112.463 102.475C112.637 102.944 112.905 103.322 113.267 103.61C113.629 103.897 114.091 104.041 114.652 104.041ZM123.368 105.17C122.686 105.17 122.084 104.998 121.562 104.654C121.04 104.306 120.632 103.816 120.337 103.184C120.042 102.548 119.895 101.797 119.895 100.93C119.895 100.071 120.042 99.3252 120.337 98.6931C120.632 98.061 121.042 97.5727 121.568 97.2282C122.093 96.8838 122.7 96.7116 123.389 96.7116C123.922 96.7116 124.343 96.8003 124.652 96.9779C124.964 97.1519 125.202 97.3508 125.366 97.5745C125.532 97.7947 125.662 97.9758 125.754 98.1178H125.861V94.0908H127.118V105H125.903V103.743H125.754C125.662 103.892 125.531 104.08 125.36 104.307C125.19 104.531 124.946 104.732 124.63 104.909C124.314 105.083 123.894 105.17 123.368 105.17ZM123.538 104.041C124.043 104.041 124.469 103.91 124.817 103.647C125.165 103.381 125.429 103.013 125.611 102.544C125.792 102.072 125.882 101.527 125.882 100.909C125.882 100.298 125.793 99.7638 125.616 99.3057C125.438 98.844 125.176 98.4853 124.828 98.2297C124.479 97.9704 124.05 97.8408 123.538 97.8408C123.006 97.8408 122.562 97.9775 122.207 98.251C121.855 98.5209 121.591 98.8884 121.413 99.3536C121.239 99.8152 121.152 100.334 121.152 100.909C121.152 101.491 121.241 102.021 121.418 102.496C121.6 102.969 121.866 103.345 122.217 103.626C122.573 103.903 123.013 104.041 123.538 104.041ZM130.511 105.085C130.248 105.085 130.023 104.991 129.835 104.803C129.646 104.615 129.552 104.389 129.552 104.126C129.552 103.864 129.646 103.638 129.835 103.45C130.023 103.262 130.248 103.168 130.511 103.168C130.774 103.168 130.999 103.262 131.188 103.45C131.376 103.638 131.47 103.864 131.47 104.126C131.47 104.3 131.426 104.46 131.337 104.606C131.252 104.751 131.136 104.869 130.991 104.957C130.848 105.043 130.689 105.085 130.511 105.085ZM138.115 105V94.0908H139.436V98.9488H145.253V94.0908H146.574V105H145.253V100.121H139.436V105H138.115ZM149.048 105V96.8181H150.305V105H149.048ZM149.687 95.4545C149.442 95.4545 149.231 95.371 149.053 95.2041C148.879 95.0372 148.792 94.8366 148.792 94.6022C148.792 94.3678 148.879 94.1672 149.053 94.0003C149.231 93.8334 149.442 93.7499 149.687 93.7499C149.932 93.7499 150.142 93.8334 150.316 94.0003C150.493 94.1672 150.582 94.3678 150.582 94.6022C150.582 94.8366 150.493 95.0372 150.316 95.2041C150.142 95.371 149.932 95.4545 149.687 95.4545ZM156.166 96.8181V97.8834H151.926V96.8181H156.166ZM153.162 94.8579H154.419V102.656C154.419 103.011 154.47 103.278 154.573 103.455C154.68 103.629 154.815 103.746 154.978 103.807C155.145 103.864 155.321 103.892 155.505 103.892C155.644 103.892 155.757 103.885 155.846 103.871C155.935 103.853 156.006 103.839 156.059 103.828L156.315 104.957C156.23 104.989 156.111 105.021 155.958 105.053C155.805 105.089 155.612 105.106 155.377 105.106C155.022 105.106 154.674 105.03 154.333 104.877C153.996 104.725 153.716 104.492 153.492 104.18C153.272 103.867 153.162 103.473 153.162 102.997V94.8579ZM161.509 94.0908H163.021L166.047 99.1831H166.175L169.2 94.0908H170.713L166.771 100.504V105H165.45V100.504L161.509 94.0908ZM174.418 105.17C173.679 105.17 173.031 104.995 172.474 104.643C171.92 104.291 171.486 103.8 171.174 103.168C170.865 102.535 170.71 101.797 170.71 100.952C170.71 100.099 170.865 99.3554 171.174 98.7197C171.486 98.0841 171.92 97.5905 172.474 97.2389C173.031 96.8873 173.679 96.7116 174.418 96.7116C175.156 96.7116 175.803 96.8873 176.357 97.2389C176.914 97.5905 177.347 98.0841 177.656 98.7197C177.969 99.3554 178.125 100.099 178.125 100.952C178.125 101.797 177.969 102.535 177.656 103.168C177.347 103.8 176.914 104.291 176.357 104.643C175.803 104.995 175.156 105.17 174.418 105.17ZM174.418 104.041C174.979 104.041 175.441 103.897 175.803 103.61C176.165 103.322 176.433 102.944 176.607 102.475C176.781 102.006 176.868 101.498 176.868 100.952C176.868 100.405 176.781 99.8951 176.607 99.4228C176.433 98.9505 176.165 98.5688 175.803 98.2776C175.441 97.9864 174.979 97.8408 174.418 97.8408C173.857 97.8408 173.395 97.9864 173.033 98.2776C172.671 98.5688 172.403 98.9505 172.229 99.4228C172.055 99.8951 171.968 100.405 171.968 100.952C171.968 101.498 172.055 102.006 172.229 102.475C172.403 102.944 172.671 103.322 173.033 103.61C173.395 103.897 173.857 104.041 174.418 104.041ZM185.2 101.655V96.8181H186.457V105H185.2V103.615H185.115C184.923 104.03 184.625 104.384 184.22 104.675C183.815 104.963 183.304 105.106 182.686 105.106C182.175 105.106 181.72 104.995 181.323 104.771C180.925 104.544 180.612 104.203 180.385 103.748C180.158 103.29 180.044 102.713 180.044 102.017V96.8181H181.301V101.932C181.301 102.528 181.468 103.004 181.802 103.359C182.139 103.714 182.569 103.892 183.091 103.892C183.403 103.892 183.721 103.812 184.044 103.652C184.371 103.492 184.645 103.247 184.865 102.917C185.089 102.587 185.2 102.166 185.2 101.655ZM188.76 105V96.8181H189.974V98.0539H190.06C190.209 97.6491 190.479 97.3206 190.869 97.0684C191.26 96.8163 191.7 96.6902 192.19 96.6902C192.283 96.6902 192.398 96.692 192.537 96.6956C192.675 96.6991 192.78 96.7045 192.851 96.7116V97.99C192.808 97.9793 192.711 97.9633 192.558 97.942C192.409 97.9172 192.251 97.9047 192.084 97.9047C191.686 97.9047 191.331 97.9882 191.018 98.1551C190.71 98.3184 190.464 98.5457 190.283 98.8369C190.106 99.1246 190.017 99.453 190.017 99.8224V105H188.76ZM206.188 97.4999C206.07 97.1412 205.916 96.8199 205.724 96.5358C205.536 96.2481 205.31 96.0031 205.048 95.8007C204.788 95.5983 204.494 95.4438 204.163 95.3373C203.833 95.2307 203.471 95.1775 203.077 95.1775C202.43 95.1775 201.843 95.3444 201.314 95.6782C200.785 96.012 200.364 96.5038 200.051 97.1537C199.739 97.8035 199.582 98.6008 199.582 99.5454C199.582 100.49 199.741 101.287 200.057 101.937C200.373 102.587 200.801 103.079 201.34 103.413C201.88 103.746 202.487 103.913 203.162 103.913C203.787 103.913 204.337 103.78 204.813 103.514C205.293 103.244 205.666 102.864 205.932 102.374C206.202 101.88 206.337 101.3 206.337 100.632L206.742 100.717H203.46V99.5454H207.615V100.717C207.615 101.616 207.423 102.397 207.04 103.061C206.66 103.725 206.134 104.24 205.463 104.606C204.796 104.968 204.028 105.149 203.162 105.149C202.196 105.149 201.347 104.922 200.616 104.467C199.888 104.013 199.32 103.366 198.911 102.528C198.506 101.69 198.304 100.696 198.304 99.5454C198.304 98.6824 198.419 97.9065 198.65 97.2176C198.885 96.5251 199.215 95.9356 199.641 95.4491C200.067 94.9626 200.571 94.5898 201.154 94.3305C201.736 94.0713 202.377 93.9417 203.077 93.9417C203.652 93.9417 204.188 94.0287 204.685 94.2027C205.186 94.3731 205.632 94.6164 206.022 94.9324C206.417 95.2449 206.745 95.6196 207.008 96.0564C207.271 96.4896 207.452 96.9708 207.551 97.4999H206.188ZM213.031 105.17C212.292 105.17 211.644 104.995 211.087 104.643C210.533 104.291 210.1 103.8 209.787 103.168C209.478 102.535 209.324 101.797 209.324 100.952C209.324 100.099 209.478 99.3554 209.787 98.7197C210.1 98.0841 210.533 97.5905 211.087 97.2389C211.644 96.8873 212.292 96.7116 213.031 96.7116C213.77 96.7116 214.416 96.8873 214.97 97.2389C215.528 97.5905 215.961 98.0841 216.27 98.7197C216.582 99.3554 216.738 100.099 216.738 100.952C216.738 101.797 216.582 102.535 216.27 103.168C215.961 103.8 215.528 104.291 214.97 104.643C214.416 104.995 213.77 105.17 213.031 105.17ZM213.031 104.041C213.592 104.041 214.054 103.897 214.416 103.61C214.778 103.322 215.046 102.944 215.22 102.475C215.394 102.006 215.481 101.498 215.481 100.952C215.481 100.405 215.394 99.8951 215.22 99.4228C215.046 98.9505 214.778 98.5688 214.416 98.2776C214.054 97.9864 213.592 97.8408 213.031 97.8408C212.47 97.8408 212.008 97.9864 211.646 98.2776C211.284 98.5688 211.016 98.9505 210.842 99.4228C210.668 99.8951 210.581 100.405 210.581 100.952C210.581 101.498 210.668 102.006 210.842 102.475C211.016 102.944 211.284 103.322 211.646 103.61C212.008 103.897 212.47 104.041 213.031 104.041ZM221.065 105.192C220.547 105.192 220.076 105.094 219.653 104.899C219.231 104.7 218.895 104.414 218.647 104.041C218.398 103.665 218.274 103.21 218.274 102.677C218.274 102.209 218.366 101.829 218.551 101.538C218.736 101.243 218.982 101.012 219.291 100.845C219.6 100.678 219.941 100.554 220.314 100.472C220.69 100.387 221.069 100.32 221.449 100.27C221.946 100.206 222.349 100.158 222.658 100.126C222.97 100.09 223.198 100.032 223.34 99.9502C223.485 99.8685 223.558 99.7265 223.558 99.5241V99.4814C223.558 98.9559 223.414 98.5475 223.127 98.2563C222.842 97.9651 222.411 97.8195 221.832 97.8195C221.232 97.8195 220.761 97.9509 220.421 98.2137C220.08 98.4765 219.84 98.757 219.701 99.0553L218.508 98.6292C218.721 98.132 219.005 97.7449 219.361 97.4679C219.719 97.1874 220.11 96.9921 220.532 96.882C220.959 96.7684 221.378 96.7116 221.79 96.7116C222.052 96.7116 222.354 96.7435 222.695 96.8074C223.04 96.8678 223.372 96.9939 223.691 97.1856C224.014 97.3774 224.282 97.6668 224.495 98.0539C224.709 98.441 224.815 98.9594 224.815 99.6093V105H223.558V103.892H223.494C223.409 104.07 223.267 104.259 223.068 104.462C222.869 104.664 222.604 104.837 222.274 104.979C221.944 105.121 221.541 105.192 221.065 105.192ZM221.257 104.062C221.754 104.062 222.173 103.965 222.514 103.769C222.858 103.574 223.118 103.322 223.292 103.013C223.469 102.704 223.558 102.379 223.558 102.038V100.888C223.505 100.952 223.388 101.01 223.206 101.063C223.029 101.113 222.823 101.158 222.589 101.197C222.358 101.232 222.132 101.264 221.912 101.293C221.695 101.317 221.52 101.339 221.385 101.356C221.058 101.399 220.753 101.468 220.468 101.564C220.188 101.657 219.961 101.797 219.787 101.985C219.616 102.17 219.531 102.422 219.531 102.741C219.531 103.178 219.693 103.508 220.016 103.732C220.342 103.952 220.756 104.062 221.257 104.062ZM228.367 94.0908V105H227.11V94.0908H228.367ZM236.465 98.6505L235.335 98.9701C235.264 98.7819 235.16 98.599 235.021 98.4214C234.886 98.2403 234.701 98.0912 234.467 97.974C234.233 97.8568 233.933 97.7982 233.567 97.7982C233.066 97.7982 232.649 97.9136 232.315 98.1444C231.985 98.3717 231.82 98.6611 231.82 99.0127C231.82 99.3252 231.933 99.572 232.161 99.7531C232.388 99.9342 232.743 100.085 233.226 100.206L234.44 100.504C235.172 100.682 235.717 100.953 236.076 101.319C236.434 101.681 236.614 102.148 236.614 102.72C236.614 103.189 236.479 103.608 236.209 103.977C235.943 104.346 235.57 104.638 235.09 104.851C234.611 105.064 234.053 105.17 233.418 105.17C232.583 105.17 231.892 104.989 231.346 104.627C230.799 104.265 230.453 103.736 230.307 103.04L231.5 102.741C231.614 103.182 231.829 103.512 232.145 103.732C232.464 103.952 232.881 104.062 233.396 104.062C233.982 104.062 234.448 103.938 234.792 103.69C235.14 103.437 235.314 103.136 235.314 102.784C235.314 102.5 235.215 102.262 235.016 102.07C234.817 101.875 234.511 101.729 234.1 101.633L232.736 101.314C231.987 101.136 231.436 100.861 231.085 100.488C230.737 100.112 230.563 99.6412 230.563 99.0766C230.563 98.615 230.692 98.2066 230.951 97.8515C231.214 97.4964 231.571 97.2176 232.022 97.0152C232.477 96.8128 232.992 96.7116 233.567 96.7116C234.377 96.7116 235.012 96.8891 235.474 97.2442C235.939 97.5993 236.269 98.0681 236.465 98.6505Z" fill="black"/>
</svg>
